<svg xmlns="http://www.w3.org/2000/svg" xmlns:xlink="http://www.w3.org/1999/xlink" width="95" height="95" viewBox="0 0 95 95"><defs><style>.a{fill:url(#a);}.b{fill:#fff;}.c{filter:url(#b);}</style><linearGradient id="a" x1="0.803" y1="0.739" x2="0.218" y2="0.251" gradientUnits="objectBoundingBox"><stop offset="0" stop-color="#ff6f37"/><stop offset="1" stop-color="#ff8f63"/></linearGradient><filter id="b" x="0" y="0" width="95" height="95" filterUnits="userSpaceOnUse"><feOffset dy="5" input="SourceAlpha"/><feGaussianBlur stdDeviation="7.5" result="c"/><feFlood flood-color="#9b3d19" flood-opacity="0.18"/><feComposite operator="in" in2="c"/><feComposite in="SourceGraphic"/></filter></defs><g transform="translate(-666.5 -375.5)"><g class="c" transform="matrix(1, 0, 0, 1, 666.5, 375.5)"><circle class="a" cx="25" cy="25" r="25" transform="translate(22.5 17.5)"/></g><path class="b" d="M4.044,40.088a2.7,2.7,0,1,0-2.7-2.7A2.7,2.7,0,0,0,4.044,40.088Zm18.873,0a2.7,2.7,0,1,0-2.7-2.7A2.7,2.7,0,0,0,22.917,40.088Zm1.348,1.348h-2.7a2.688,2.688,0,0,0-1.9.784,6.162,6.162,0,0,1,3.164,4.609h2.78a1.347,1.347,0,0,0,1.348-1.348V44.132A2.7,2.7,0,0,0,24.265,41.436Zm-10.784,0a4.718,4.718,0,1,0-4.718-4.718A4.716,4.716,0,0,0,13.48,41.436Zm3.235,1.348h-.35a6.514,6.514,0,0,1-5.771,0h-.35a4.854,4.854,0,0,0-4.853,4.853v1.213a2.023,2.023,0,0,0,2.022,2.022H19.547a2.023,2.023,0,0,0,2.022-2.022V47.637A4.854,4.854,0,0,0,16.716,42.784ZM7.292,42.22a2.688,2.688,0,0,0-1.9-.784H2.7a2.7,2.7,0,0,0-2.7,2.7V45.48a1.347,1.347,0,0,0,1.348,1.348H4.124A6.177,6.177,0,0,1,7.292,42.22Z" transform="translate(701 376.711)"/></g></svg>