<svg xmlns="http://www.w3.org/2000/svg" xmlns:xlink="http://www.w3.org/1999/xlink" width="95" height="95" viewBox="0 0 95 95"><defs><style>.a{fill:url(#a);}.b{fill:#fff;}.c{filter:url(#b);}</style><linearGradient id="a" x1="0.803" y1="0.739" x2="0.218" y2="0.251" gradientUnits="objectBoundingBox"><stop offset="0" stop-color="#ff6f37"/><stop offset="1" stop-color="#ff8f63"/></linearGradient><filter id="b" x="0" y="0" width="95" height="95" filterUnits="userSpaceOnUse"><feOffset dy="5" input="SourceAlpha"/><feGaussianBlur stdDeviation="7.5" result="c"/><feFlood flood-color="#9b3d19" flood-opacity="0.18"/><feComposite operator="in" in2="c"/><feComposite in="SourceGraphic"/></filter></defs><g transform="translate(-5758.5 -2597.5)"><g class="c" transform="matrix(1, 0, 0, 1, 5758.5, 2597.5)"><circle class="a" cx="25" cy="25" r="25" transform="translate(22.5 17.5)"/></g><g transform="translate(5794.999 2629)"><g transform="translate(-0.999 -1)"><g transform="translate(0 0)"><path class="b" d="M22.708,4.293l-5-5A1,1,0,0,0,17-1H0A1,1,0,0,0-1,0V22a1,1,0,0,0,1,1H22a1,1,0,0,0,1-1V5A1,1,0,0,0,22.708,4.293ZM15,1V6H7V1Zm1,20H6V14H16v7Zm5,0H18V13a1,1,0,0,0-1-1H5a1,1,0,0,0-1,1v8H1V1H5V7A1,1,0,0,0,6,8H16a1,1,0,0,0,1-1V1.414l4,4V21Z" transform="translate(0.999 1)"/></g></g></g></g></svg>