<svg xmlns="http://www.w3.org/2000/svg" width="50.847" height="39.547" viewBox="0 0 50.847 39.547"><path d="M42.628,66.306a.99.99,0,1,1-.989-1.033A.987.987,0,0,1,42.628,66.306ZM15.192,65.273a1.035,1.035,0,1,0,.962,1.033A.976.976,0,0,0,15.192,65.273Zm10.372-.026a.818.818,0,0,0-.839.768h1.686A.812.812,0,0,0,25.565,65.247Zm9.516.026a1.034,1.034,0,1,0,.989,1.033A.976.976,0,0,0,35.081,65.273Zm9.348,2.3c0,.026.026.044.026.1,0,.026-.026.044-.026.1a.31.31,0,0,0-.044.071.114.114,0,0,1-.1.044c-.026.026-.044.026-.1.026a.175.175,0,0,1-.1-.026c-.026,0-.044-.026-.071-.044s-.044-.044-.044-.071a.161.161,0,0,1-.026-.1c0-.044,0-.071.026-.1a.166.166,0,0,1,.044-.1.31.31,0,0,1,.071-.044.161.161,0,0,1,.1-.026c.044,0,.071,0,.1.026.044.026.071.026.1.044S44.4,67.533,44.429,67.577Zm-.194.124c.044,0,.044-.026.071-.026a.107.107,0,0,0,0-.141c-.026,0-.044-.026-.1-.026h-.141v.309h.071v-.124h.026l.1.124h.071l-.1-.115Zm6.612-30.464V68.31a4.238,4.238,0,0,1-4.237,4.237H4.237A4.238,4.238,0,0,1,0,68.31V37.237A4.238,4.238,0,0,1,4.237,33H46.609A4.238,4.238,0,0,1,50.847,37.237ZM5.65,49.56A12.22,12.22,0,0,0,24.629,59.747a13.164,13.164,0,0,1,0-20.347A12.22,12.22,0,0,0,5.65,49.56Zm19.774,9.6a12.222,12.222,0,0,0,0-19.2A12.222,12.222,0,0,0,25.423,59.165ZM12.862,65.9a1.237,1.237,0,0,0-1.3-1.3,1.262,1.262,0,0,0-1.13.574A1.17,1.17,0,0,0,9.357,64.6a1.121,1.121,0,0,0-.936.477v-.388H7.7v3.24h.724c0-1.668-.221-2.666.794-2.666.9,0,.724.9.724,2.666h.7c0-1.615-.221-2.666.794-2.666.9,0,.724.883.724,2.666h.724V65.9Zm3.964-1.209h-.7v.388A1.272,1.272,0,0,0,15.1,64.6a1.707,1.707,0,0,0,0,3.407,1.224,1.224,0,0,0,1.033-.477v.406h.7Zm3.575,2.26c0-1.324-2.022-.724-2.022-1.342,0-.5,1.05-.424,1.633-.1l.291-.574c-.83-.538-2.666-.53-2.666.724s2.022.733,2.022,1.324c0,.556-1.192.512-1.827.071l-.309.556c.989.671,2.878.53,2.878-.662Zm3.125.821-.194-.6c-.335.185-1.077.388-1.077-.362V65.344h1.156v-.653H22.254V63.7H21.53v.989h-.671v.644h.671v1.474C21.53,68.363,23.057,68.081,23.525,67.772ZM24.7,66.589h2.428c0-1.43-.653-2-1.536-2a1.589,1.589,0,0,0-1.607,1.7,1.761,1.761,0,0,0,2.984,1.254l-.335-.53C25.944,67.586,24.9,67.533,24.7,66.589Zm5.217-1.9a1.036,1.036,0,0,0-1.342.388v-.388h-.724v3.24h.724V66.1a.737.737,0,0,1,1.13-.742l.212-.671Zm.936,1.615c0-1.006,1.024-1.333,1.827-.742l.335-.574a1.747,1.747,0,1,0,0,2.648l-.335-.574C31.867,67.639,30.852,67.295,30.852,66.306Zm5.888-1.615h-.724v.388a1.55,1.55,0,0,0-2.639,1.227c0,1.695,1.977,2.18,2.639,1.227v.406h.724Zm2.975,0a1.061,1.061,0,0,0-1.342.388v-.388h-.7v3.24h.7V66.1a.741.741,0,0,1,1.13-.742Zm3.557-1.315h-.7v1.7a1.6,1.6,0,1,0,0,2.454v.406h.7Zm.671-6.629v.406h.071v-.406h.168v-.071h-.406v.071h.168Zm.583,10.928a.269.269,0,0,0-.026-.141c-.026-.026-.044-.071-.071-.1s-.071-.044-.1-.071c-.044,0-.1-.026-.141-.026a.938.938,0,0,1-.124.026.46.46,0,0,0-.1.071.138.138,0,0,0-.071.1.269.269,0,0,0-.026.141.257.257,0,0,0,.026.124.138.138,0,0,0,.071.1.306.306,0,0,0,.1.071.24.24,0,0,0,.124.026.269.269,0,0,0,.141-.026c.026-.026.071-.044.1-.071s.044-.071.071-.1A.257.257,0,0,0,44.526,67.675Zm.282-11.008h-.124l-.141.309-.141-.309h-.124v.477h.071v-.362l.141.309h.1l.124-.309v.362h.1ZM45.2,49.56A12.22,12.22,0,0,0,26.218,39.391a13.165,13.165,0,0,1,0,20.347A12.22,12.22,0,0,0,45.2,49.56Z" transform="translate(0 -33)"/></svg>