<svg xmlns="http://www.w3.org/2000/svg" width="14.763" height="14.763" viewBox="0 0 14.763 14.763"><defs><style>.a{fill:#24279d;}</style></defs><path class="a" d="M6.228,0H8.535a.69.69,0,0,1,.692.692V5.536h2.529a.576.576,0,0,1,.407.983L7.777,10.908a.559.559,0,0,1-.787,0L2.6,6.519A.576.576,0,0,1,3,5.536H5.536V.692A.69.69,0,0,1,6.228,0Zm8.535,10.842v3.229a.69.69,0,0,1-.692.692H.692A.69.69,0,0,1,0,14.071V10.842a.69.69,0,0,1,.692-.692h4.23l1.413,1.413a1.478,1.478,0,0,0,2.093,0L9.841,10.15h4.23A.69.69,0,0,1,14.763,10.842Zm-3.575,2.537a.577.577,0,1,0-.577.577A.578.578,0,0,0,11.188,13.379Zm1.845,0a.577.577,0,1,0-.577.577A.578.578,0,0,0,13.033,13.379Z"/></svg>