<svg xmlns="http://www.w3.org/2000/svg" width="22.682" height="18.903" viewBox="0 0 22.682 18.903"><defs><style>.a{fill:#ff7d69;}</style></defs><path class="a" d="M8.468,18.163l-3.5,3.5H.945A.945.945,0,0,0,0,22.611v5.671a.945.945,0,0,0,.945.945H4.964l3.5,3.5a.946.946,0,0,0,1.613-.668V18.832A.946.946,0,0,0,8.468,18.163Zm9.188-2.011a.953.953,0,0,0-1.046,1.593,9.2,9.2,0,0,1,0,15.4.953.953,0,1,0,1.046,1.593,11.107,11.107,0,0,0,0-18.59ZM18.9,25.446a7.271,7.271,0,0,0-3.378-6.153.941.941,0,0,0-1.3.294.956.956,0,0,0,.292,1.314,5.382,5.382,0,0,1,0,9.09.956.956,0,0,0-.292,1.314.943.943,0,0,0,1.3.294A7.27,7.27,0,0,0,18.9,25.446Zm-5.583-3.027a.945.945,0,0,0-.912,1.656,1.552,1.552,0,0,1,0,2.742.945.945,0,1,0,.912,1.656,3.443,3.443,0,0,0,0-6.054Z" transform="translate(0 -15.995)"/></svg>