<svg xmlns="http://www.w3.org/2000/svg" width="54.008" height="37.806" viewBox="0 0 54.008 37.806"><defs><style>.a{fill:#4447ab;}</style></defs><path class="a" d="M45.367,48.422A8.111,8.111,0,0,0,37.806,37.4a8.06,8.06,0,0,0-4.5,1.367A13.5,13.5,0,0,0,8.1,45.5c0,.228.008.456.017.684a12.155,12.155,0,0,0,4.034,23.62H43.207a10.8,10.8,0,0,0,2.16-21.384ZM33.2,53.6H27.679v9.451a1.354,1.354,0,0,1-1.35,1.35H22.278a1.354,1.354,0,0,1-1.35-1.35V53.6H15.409a1.348,1.348,0,0,1-.954-2.3l8.895-8.895a1.355,1.355,0,0,1,1.907,0L34.152,51.3a1.35,1.35,0,0,1-.954,2.3Z" transform="translate(0 -32)"/></svg>