<svg xmlns="http://www.w3.org/2000/svg" width="52.549" height="52.549" viewBox="0 0 52.549 52.549"><defs><style>.a{fill:#4447ab;}</style></defs><path class="a" d="M34.275,8A26.275,26.275,0,1,0,60.549,34.275,26.27,26.27,0,0,0,34.275,8ZM49.531,37.241a1.275,1.275,0,0,1-1.271,1.271H38.512v9.747a1.275,1.275,0,0,1-1.271,1.271H31.308a1.275,1.275,0,0,1-1.271-1.271V38.512H20.29a1.275,1.275,0,0,1-1.271-1.271V31.308a1.275,1.275,0,0,1,1.271-1.271h9.747V20.29a1.275,1.275,0,0,1,1.271-1.271h5.933a1.275,1.275,0,0,1,1.271,1.271v9.747h9.747a1.275,1.275,0,0,1,1.271,1.271Z" transform="translate(-8 -8)"/></svg>