<svg xmlns="http://www.w3.org/2000/svg" width="12.92" height="12.92" viewBox="0 0 12.92 12.92"><defs><style>.a{fill:#333;}</style></defs><path class="a" d="M14.46,8a6.46,6.46,0,1,0,6.46,6.46A6.461,6.461,0,0,0,14.46,8Zm0,2.865a1.094,1.094,0,1,1-1.094,1.094A1.094,1.094,0,0,1,14.46,10.865Zm1.459,6.617a.313.313,0,0,1-.313.313H13.314A.313.313,0,0,1,13,17.482v-.625a.313.313,0,0,1,.313-.313h.313V14.877h-.313A.313.313,0,0,1,13,14.564v-.625a.313.313,0,0,1,.313-.313h1.667a.313.313,0,0,1,.313.313v2.6h.313a.313.313,0,0,1,.313.313Z" transform="translate(-8 -8)"/></svg>