<svg xmlns="http://www.w3.org/2000/svg" width="28.904" height="23.123" viewBox="0 0 28.904 23.123"><defs><style>.a{fill:#333;}</style></defs><path class="a" d="M28.181,9.394h-2.89V6.5a.725.725,0,0,0-.723-.723H23.123A.725.725,0,0,0,22.4,6.5v2.89H19.51a.725.725,0,0,0-.723.723v1.445a.725.725,0,0,0,.723.723H22.4v2.89a.725.725,0,0,0,.723.723h1.445a.725.725,0,0,0,.723-.723v-2.89h2.89a.725.725,0,0,0,.723-.723V10.116A.725.725,0,0,0,28.181,9.394ZM10.116,11.562A5.781,5.781,0,1,0,4.336,5.781,5.78,5.78,0,0,0,10.116,11.562Zm4.047,1.445h-.754a7.862,7.862,0,0,1-6.585,0H6.07A6.071,6.071,0,0,0,0,19.077v1.879a2.168,2.168,0,0,0,2.168,2.168h15.9a2.168,2.168,0,0,0,2.168-2.168V19.077A6.071,6.071,0,0,0,14.163,13.007Z"/></svg>