<svg xmlns="http://www.w3.org/2000/svg" width="617" height="617" viewBox="0 0 617 617"><defs><style>.a{fill:none;opacity:0.05;}.b,.c{stroke:none;}.c{fill:#4447ab;}</style></defs><g class="a"><path class="b" d="M308.5,0C478.88,0,617,138.12,617,308.5S478.88,617,308.5,617,0,478.88,0,308.5,138.12,0,308.5,0Z"/><path class="c" d="M 308.5 50 C 165.9626159667969 50 50 165.9626159667969 50 308.5 C 50 451.037353515625 165.9626159667969 567 308.5 567 C 451.037353515625 567 567 451.037353515625 567 308.5 C 567 165.9626159667969 451.037353515625 50 308.5 50 M 308.5 0 C 478.8798828125 0 617 138.1201171875 617 308.5 C 617 478.8798828125 478.8798828125 617 308.5 617 C 138.1201171875 617 0 478.8798828125 0 308.5 C 0 138.1201171875 138.1201171875 0 308.5 0 Z"/></g></svg>