<svg xmlns="http://www.w3.org/2000/svg" width="23.738" height="16.617" viewBox="0 0 23.738 16.617"><defs><style>.a{fill:#fff;}</style></defs><path class="a" d="M19.94,39.218a3.565,3.565,0,0,0-3.323-4.844,3.543,3.543,0,0,0-1.977.6,5.935,5.935,0,0,0-11.079,2.96c0,.1,0,.2.007.3A5.343,5.343,0,0,0,5.341,48.617h13.65a4.747,4.747,0,0,0,.95-9.4ZM14.592,41.5H12.166V45.65a.6.6,0,0,1-.593.593H9.792A.6.6,0,0,1,9.2,45.65V41.5H6.773a.592.592,0,0,1-.419-1.013l3.909-3.909a.6.6,0,0,1,.838,0l3.909,3.909A.593.593,0,0,1,14.592,41.5Z" transform="translate(0 -32)"/></svg>