<svg xmlns="http://www.w3.org/2000/svg" width="103" height="77.25" viewBox="0 0 103 77.25"><defs><style>.a{opacity:0.4;}</style></defs><path class="a" d="M93.344,64H9.656A9.656,9.656,0,0,0,0,73.656v57.938a9.656,9.656,0,0,0,9.656,9.656H93.344A9.656,9.656,0,0,0,103,131.594V73.656A9.656,9.656,0,0,0,93.344,64Zm-1.207,67.594H10.863a1.207,1.207,0,0,1-1.207-1.207V74.863a1.207,1.207,0,0,1,1.207-1.207H92.137a1.207,1.207,0,0,1,1.207,1.207v55.523A1.207,1.207,0,0,1,92.137,131.594ZM25.75,81.7A8.047,8.047,0,1,0,33.8,89.75,8.047,8.047,0,0,0,25.75,81.7Zm-6.437,40.234H83.688V105.844L66.082,88.238a2.414,2.414,0,0,0-3.414,0L38.625,112.281l-7.949-7.949a2.414,2.414,0,0,0-3.414,0l-7.949,7.949Z" transform="translate(0 -64)"/></svg>