<svg xmlns="http://www.w3.org/2000/svg" width="13.494" height="13.494" viewBox="0 0 13.494 13.494"><defs><style>.a{fill:#9a9a9a;}</style></defs><path class="a" d="M14.747,8a6.747,6.747,0,1,0,6.747,6.747A6.748,6.748,0,0,0,14.747,8Zm0,2.993A1.143,1.143,0,1,1,13.6,12.135,1.143,1.143,0,0,1,14.747,10.993ZM16.27,17.9a.326.326,0,0,1-.326.326H13.55a.326.326,0,0,1-.326-.326V17.25a.326.326,0,0,1,.326-.326h.326V15.182H13.55a.326.326,0,0,1-.326-.326V14.2a.326.326,0,0,1,.326-.326h1.741a.326.326,0,0,1,.326.326v2.72h.326a.326.326,0,0,1,.326.326Z" transform="translate(-8 -8)"/></svg>