<svg xmlns="http://www.w3.org/2000/svg" width="12.684" height="14.496" viewBox="0 0 12.684 14.496"><defs><style>.a{fill:#9a9a9a;}</style></defs><path class="a" d="M.34,5.436h12a.341.341,0,0,1,.34.34v7.361A1.359,1.359,0,0,1,11.325,14.5H1.359A1.359,1.359,0,0,1,0,13.137V5.776A.341.341,0,0,1,.34,5.436ZM12.684,4.19V3.171a1.359,1.359,0,0,0-1.359-1.359H9.966V.34A.341.341,0,0,0,9.626,0H8.493a.341.341,0,0,0-.34.34V1.812H4.53V.34A.341.341,0,0,0,4.19,0H3.058a.341.341,0,0,0-.34.34V1.812H1.359A1.359,1.359,0,0,0,0,3.171V4.19a.341.341,0,0,0,.34.34h12A.341.341,0,0,0,12.684,4.19Z"/></svg>