<svg xmlns="http://www.w3.org/2000/svg" width="18.103" height="15.086" viewBox="0 0 18.103 15.086"><defs><style>.a{opacity:0.59;}</style></defs><path class="a" d="M6.758,17.726l-2.8,2.8H.754A.754.754,0,0,0,0,21.276V25.8a.754.754,0,0,0,.754.754H3.962l2.8,2.8a.755.755,0,0,0,1.288-.533V18.259A.755.755,0,0,0,6.758,17.726Zm7.333-1.605a.761.761,0,1,0-.835,1.272,7.343,7.343,0,0,1,0,12.294.76.76,0,1,0,.835,1.271,8.864,8.864,0,0,0,0-14.836Zm.995,7.418a5.8,5.8,0,0,0-2.7-4.91.751.751,0,0,0-1.041.234.763.763,0,0,0,.233,1.048,4.3,4.3,0,0,1,0,7.255.763.763,0,0,0-.233,1.048.752.752,0,0,0,1.041.234A5.8,5.8,0,0,0,15.086,23.538ZM10.63,21.122A.755.755,0,1,0,9.9,22.444a1.239,1.239,0,0,1,0,2.188.755.755,0,1,0,.728,1.322,2.748,2.748,0,0,0,0-4.832Z" transform="translate(0 -15.995)"/></svg>