<svg xmlns="http://www.w3.org/2000/svg" width="18.27" height="12.789" viewBox="0 0 18.27 12.789"><defs><style>.a{fill:#4a4649;}</style></defs><path class="a" d="M2.741,37.481A1.827,1.827,0,1,0,.914,35.654,1.829,1.829,0,0,0,2.741,37.481Zm12.789,0A1.827,1.827,0,1,0,13.7,35.654,1.829,1.829,0,0,0,15.53,37.481Zm.914.914H14.616a1.822,1.822,0,0,0-1.287.531,4.176,4.176,0,0,1,2.144,3.123h1.884a.913.913,0,0,0,.914-.914v-.914A1.829,1.829,0,0,0,16.443,38.395Zm-7.308,0a3.2,3.2,0,1,0-3.2-3.2A3.2,3.2,0,0,0,9.135,38.395Zm2.192.914h-.237a4.414,4.414,0,0,1-3.911,0H6.943A3.29,3.29,0,0,0,3.654,42.6v.822a1.371,1.371,0,0,0,1.37,1.37h8.222a1.371,1.371,0,0,0,1.37-1.37V42.6A3.29,3.29,0,0,0,11.328,39.308Zm-6.386-.383a1.822,1.822,0,0,0-1.287-.531H1.827A1.829,1.829,0,0,0,0,40.222v.914a.913.913,0,0,0,.914.914H2.795a4.186,4.186,0,0,1,2.147-3.123Z" transform="translate(0 -32)"/></svg>