<svg xmlns="http://www.w3.org/2000/svg" xmlns:xlink="http://www.w3.org/1999/xlink" width="699" height="545.362" viewBox="0 0 699 545.362"><defs><style>.a{fill:#fff;}.b{fill:#9a9a9a;}.c{fill:#f5d60a;}.d{fill:#25db80;}.e{fill:none;stroke:#9a9a9a;stroke-width:7px;}.f{fill:#4447ab;}.g{filter:url(#c);}.h{filter:url(#a);}</style><filter id="a" x="0" y="0" width="699" height="545.362" filterUnits="userSpaceOnUse"><feOffset dy="3" input="SourceAlpha"/><feGaussianBlur stdDeviation="3" result="b"/><feFlood flood-opacity="0.161"/><feComposite operator="in" in2="b"/><feComposite in="SourceGraphic"/></filter><filter id="c" x="215" y="184" width="267.232" height="192.463" filterUnits="userSpaceOnUse"><feOffset dy="3" input="SourceAlpha"/><feGaussianBlur stdDeviation="3" result="d"/><feFlood flood-opacity="0.161"/><feComposite operator="in" in2="d"/><feComposite in="SourceGraphic"/></filter></defs><g transform="translate(-576 -3278)"><g transform="translate(484.5 731)"><g class="h" transform="matrix(1, 0, 0, 1, 91.5, 2547)"><path class="a" d="M0,0H681V527.362H0Z" transform="translate(9 6)"/></g><circle class="b" cx="6" cy="6" r="6" transform="translate(125 2573)"/><circle class="c" cx="6" cy="6" r="6" transform="translate(142 2573)"/><circle class="d" cx="6" cy="6" r="6" transform="translate(159 2573)"/><line class="e" x2="681" transform="translate(100.5 2612.5)"/><g transform="translate(334 2728)"><path class="a" d="M52.717,33.021,2.7.288A1.812,1.812,0,0,0,.923.187,1.627,1.627,0,0,0,0,1.635V67.1a1.629,1.629,0,0,0,.923,1.45,1.808,1.808,0,0,0,1.782-.1L52.717,35.715a1.59,1.59,0,0,0,0-2.694Z" transform="translate(66.2 53.164)"/><g class="g" transform="matrix(1, 0, 0, 1, -242.5, -181)"><path class="f" d="M209.355,107.782a37.429,37.429,0,0,0-34.893-50.859,37.194,37.194,0,0,0-20.756,6.309A62.313,62.313,0,0,0,37.385,94.308c0,1.051.039,2.1.078,3.154a56.092,56.092,0,0,0,18.615,109H199.386a49.844,49.844,0,0,0,9.969-98.68ZM153.2,131.693H127.732v43.616a6.249,6.249,0,0,1-6.231,6.231H102.808a6.249,6.249,0,0,1-6.231-6.231V131.693H71.109a6.219,6.219,0,0,1-4.4-10.631l41.045-41.045a6.252,6.252,0,0,1,8.8,0L157.6,121.062A6.228,6.228,0,0,1,153.2,131.693Z" transform="translate(224 158)"/></g></g></g></g></svg>