<svg xmlns="http://www.w3.org/2000/svg" width="25.469" height="19.101" viewBox="0 0 25.469 19.101"><defs><style>.a{fill:#dadadf;}</style></defs><path class="a" d="M24.986,70.307a.3.3,0,0,1,.483.234V80.714A2.388,2.388,0,0,1,23.081,83.1H2.388A2.388,2.388,0,0,1,0,80.714V70.546a.3.3,0,0,1,.483-.234c1.114.866,2.592,1.965,7.665,5.651,1.05.766,2.82,2.378,4.586,2.368,1.776.015,3.582-1.632,4.591-2.368C22.4,72.277,23.872,71.173,24.986,70.307ZM12.734,76.734c1.154.02,2.815-1.452,3.651-2.059,6.6-4.79,7.1-5.208,8.625-6.4a1.19,1.19,0,0,0,.458-.94v-.945A2.388,2.388,0,0,0,23.081,64H2.388A2.388,2.388,0,0,0,0,66.388v.945a1.2,1.2,0,0,0,.458.94c1.522,1.189,2.025,1.612,8.625,6.4.836.607,2.5,2.079,3.651,2.059Z" transform="translate(0 -64)"/></svg>