<svg xmlns="http://www.w3.org/2000/svg" width="23.666" height="23.661" viewBox="0 0 23.666 23.661"><defs><style>.a{fill:#dadadf;}</style></defs><path class="a" d="M11.761,37.589a6.066,6.066,0,1,0,6.066,6.066A6.057,6.057,0,0,0,11.761,37.589Zm0,10.01A3.944,3.944,0,1,1,15.7,43.655,3.951,3.951,0,0,1,11.761,47.6ZM19.49,37.341a1.415,1.415,0,1,1-1.415-1.415A1.412,1.412,0,0,1,19.49,37.341Zm4.018,1.436A7,7,0,0,0,21.6,33.819a7.048,7.048,0,0,0-4.958-1.911c-1.953-.111-7.809-.111-9.762,0a7.038,7.038,0,0,0-4.958,1.906A7.025,7.025,0,0,0,.008,38.772C-.1,40.725-.1,46.58.008,48.534a7,7,0,0,0,1.911,4.958A7.057,7.057,0,0,0,6.877,55.4c1.953.111,7.809.111,9.762,0A7,7,0,0,0,21.6,53.491a7.048,7.048,0,0,0,1.911-4.958C23.619,46.58,23.619,40.73,23.508,38.777ZM20.984,50.63a3.993,3.993,0,0,1-2.249,2.249c-1.557.618-5.253.475-6.974.475s-5.422.137-6.974-.475A3.993,3.993,0,0,1,2.537,50.63c-.618-1.557-.475-5.253-.475-6.974s-.137-5.422.475-6.974a3.993,3.993,0,0,1,2.249-2.249c1.557-.618,5.253-.475,6.974-.475s5.422-.137,6.974.475a3.993,3.993,0,0,1,2.249,2.249c.618,1.557.475,5.253.475,6.974S21.6,49.077,20.984,50.63Z" transform="translate(0.075 -31.825)"/></svg>