<svg xmlns="http://www.w3.org/2000/svg" width="25.666" height="21.666" viewBox="0 0 25.666 21.666"><defs><style>.a{fill:#dadadf;}</style></defs><path class="a" d="M23.833,32H1.828A1.712,1.712,0,0,0,0,33.562V52.1a1.712,1.712,0,0,0,1.828,1.562H23.833A1.718,1.718,0,0,0,25.666,52.1V33.562A1.718,1.718,0,0,0,23.833,32ZM7.757,50.571h-3.8V40.231h3.81v10.34Zm-1.9-11.752a2.057,2.057,0,0,1-2.206-1.862A2.057,2.057,0,0,1,5.855,35.1a2.06,2.06,0,0,1,2.206,1.862A2.053,2.053,0,0,1,5.855,38.819ZM22.017,50.571h-3.8v-5.03c0-1.2-.029-2.742-1.977-2.742-1.982,0-2.286,1.306-2.286,2.655v5.117h-3.8V40.231H13.8v1.412h.052a4.188,4.188,0,0,1,3.6-1.668c3.85,0,4.566,2.142,4.566,4.928Z" transform="translate(0 -32)"/></svg>