<svg xmlns="http://www.w3.org/2000/svg" width="24.984" height="23.478" viewBox="0 0 24.984 23.478"><defs><style>.a{fill:#dadadf;}</style></defs><path class="a" d="M0,32V55.478H24.984V32Zm20.757,5.56-1.338,1.205a.359.359,0,0,0-.151.351v8.872a.351.351,0,0,0,.151.351l1.311,1.205v.267H14.148v-.257L15.5,48.319c.134-.126.134-.162.134-.351V40.794l-3.77,8.993H11.36L6.971,40.794V46.82a.8.8,0,0,0,.245.692l1.762,2.007v.267H3.971v-.267l1.762-2.007a.771.771,0,0,0,.229-.692V39.85a.58.58,0,0,0-.212-.514L4.183,37.56v-.267H9.051l3.759,7.756L16.117,37.3h4.64Z" transform="translate(0 -32)"/></svg>