<svg xmlns="http://www.w3.org/2000/svg" width="29.666" height="24.094" viewBox="0 0 29.666 24.094"><defs><style>.a{fill:#dadadf;}</style></defs><path class="a" d="M26.616,54.087c.019.264.019.527.019.791,0,8.038-6.118,17.3-17.3,17.3A17.181,17.181,0,0,1,0,69.447a12.578,12.578,0,0,0,1.468.075,12.176,12.176,0,0,0,7.548-2.6,6.091,6.091,0,0,1-5.685-4.216A7.667,7.667,0,0,0,4.48,62.8a6.431,6.431,0,0,0,1.6-.207A6.081,6.081,0,0,1,1.2,56.628v-.075a6.123,6.123,0,0,0,2.748.772,6.089,6.089,0,0,1-1.882-8.132,17.282,17.282,0,0,0,12.536,6.362,6.863,6.863,0,0,1-.151-1.393A6.086,6.086,0,0,1,24.979,50a11.97,11.97,0,0,0,3.859-1.468,6.064,6.064,0,0,1-2.673,3.351,12.189,12.189,0,0,0,3.5-.941,13.07,13.07,0,0,1-3.049,3.143Z" transform="translate(0 -48.082)"/></svg>