<svg xmlns="http://www.w3.org/2000/svg" width="35.681" height="34.167" viewBox="0 0 35.681 34.167"><defs><style>.a{fill:#fff;}</style></defs><path class="a" d="M29.039,37.62a21.265,21.265,0,0,0-28.806,0,.727.727,0,0,0-.016,1.051l1.566,1.554a.743.743,0,0,0,1.024.017,17.547,17.547,0,0,1,23.657,0,.743.743,0,0,0,1.024-.017l1.566-1.554a.727.727,0,0,0-.016-1.051Zm-14.4,9.016a2.927,2.927,0,1,0,2.927,2.927A2.927,2.927,0,0,0,14.636,46.636Zm9.269-3.823a14.041,14.041,0,0,0-18.539,0,.723.723,0,0,0-.026,1.059l1.575,1.555a.747.747,0,0,0,1.008.037,10.3,10.3,0,0,1,13.423,0,.746.746,0,0,0,1.008-.037l1.575-1.555A.723.723,0,0,0,23.906,42.813Z" transform="matrix(0.788, 0.616, -0.616, 0.788, 32.315, -25.217)"/></svg>