<svg xmlns="http://www.w3.org/2000/svg" width="26.667" height="18.75" viewBox="0 0 26.667 18.75"><defs><style>.a{fill:#dadadf;}</style></defs><path class="a" d="M41.043,66.934a3.351,3.351,0,0,0-2.358-2.373C36.605,64,28.266,64,28.266,64s-8.339,0-10.419.561a3.351,3.351,0,0,0-2.358,2.373,37.727,37.727,0,0,0,0,12.92,3.3,3.3,0,0,0,2.358,2.335c2.08.561,10.419.561,10.419.561s8.339,0,10.419-.561a3.3,3.3,0,0,0,2.358-2.335,37.726,37.726,0,0,0,0-12.92Zm-15.5,10.425v-7.93l6.97,3.965Z" transform="translate(-14.933 -64)"/></svg>